# xmcd
#
# Track frame offsets:
# 182
# 79425
# 92572
# 104795
# 117587
# 131025
# 143395
#
# Disc length: 2071 seconds
#
#
# Revision: 0
# Processed by: cddbd v1.5.1PL0 Copyright (c) Steve Scherf et al.
# Submitted via: FreeRIP 2.51 
#
DISCID=61081507
DTITLE=Carrao/Jose Romero - Florentino y El Diablo
DYEAR=1900
DGENRE=Folklore
TTITLE0=Florentino y El Diablo
TTITLE1=Zumba que Zumba
TTITLE2=Corrio
TTITLE3=Nuevo Regreso
TTITLE4=Mirando La Nueva Ola
TTITLE5=Los Merecures
TTITLE6=Corina
EXTD=
EXTT0=
EXTT1=
EXTT2=
EXTT3=
EXTT4=
EXTT5=
EXTT6=
PLAYORDER=
